<svg xmlns="http://www.w3.org/2000/svg" viewBox="0 0 1800 1000">
  <defs>
    <style>
      .wall { fill: none; stroke: #2d3748; stroke-width: 3; }
      .room { fill: #edf2f7; stroke: #a0aec0; stroke-width: 1; }
      .hallway { fill: #f7fafc; stroke: #cbd5e0; stroke-width: 1; }
      .label { font-family: Arial, sans-serif; font-size: 12px; fill: #4a5568; text-anchor: middle; }
      .title { font-family: Arial, sans-serif; font-size: 18px; fill: #1a202c; font-weight: bold; text-anchor: middle; }
      .amenity { font-family: Arial, sans-serif; font-size: 11px; fill: #3182ce; text-anchor: middle; font-weight: bold; }
      .landmark { fill: #ebf8ff; stroke: #3182ce; stroke-width: 2; }
    </style>
  </defs>
  <text class="title" x="900" y="30">Library of Congress - Madison Building - 3rd Floor</text>
  <rect class="wall" x="50" y="50" width="1700" height="900" rx="5"/>
  <rect class="hallway" x="60" y="460" width="1680" height="60"/>
  <rect class="hallway" x="300" y="60" width="50" height="880"/>
  <rect class="hallway" x="700" y="60" width="50" height="880"/>
  <rect class="hallway" x="1050" y="60" width="50" height="880"/>
  <rect class="hallway" x="1450" y="60" width="50" height="880"/>
  <rect class="room" x="70" y="70" width="220" height="180"/>
  <text class="label" x="180" y="165">LM-301</text>
  <rect class="room" x="370" y="70" width="150" height="180"/>
  <text class="label" x="445" y="165">LM-302</text>
  <rect class="room" x="770" y="70" width="260" height="180"/>
  <text class="label" x="900" y="165">LM-303</text>
  <rect class="room" x="1120" y="70" width="150" height="180"/>
  <text class="label" x="1195" y="165">LM-304</text>
  <rect class="room" x="1520" y="70" width="210" height="180"/>
  <text class="label" x="1625" y="165">LM-305</text>
  <rect class="room" x="70" y="540" width="220" height="180"/>
  <text class="label" x="180" y="635">LM-310</text>
  <rect class="room" x="370" y="540" width="150" height="180"/>
  <text class="label" x="445" y="635">LM-311</text>
  <rect class="room" x="1120" y="540" width="150" height="180"/>
  <text class="label" x="1195" y="635">LM-312</text>
  <rect class="room" x="1520" y="540" width="210" height="180"/>
  <text class="label" x="1625" y="635">LM-313</text>
  <rect class="landmark" x="305" y="400" width="30" height="30"/>
  <text class="amenity" x="320" y="420">E</text>
  <rect class="landmark" x="1055" y="400" width="30" height="30"/>
  <text class="amenity" x="1070" y="420">E</text>
  <rect class="landmark" x="305" y="130" width="30" height="30"/>
  <text class="amenity" x="320" y="150">S</text>
  <rect class="landmark" x="1455" y="130" width="30" height="30"/>
  <text class="amenity" x="1470" y="150">S</text>
  <rect class="landmark" x="850" y="465" width="30" height="30"/>
  <text class="amenity" x="865" y="485">R</text>
</svg>