<svg xmlns="http://www.w3.org/2000/svg" viewBox="0 0 1600 1200">
  <defs>
    <style>
      .wall { fill: none; stroke: #2d3748; stroke-width: 3; }
      .room { fill: #edf2f7; stroke: #a0aec0; stroke-width: 1; }
      .hallway { fill: #f7fafc; stroke: #cbd5e0; stroke-width: 1; }
      .label { font-family: Arial, sans-serif; font-size: 12px; fill: #4a5568; text-anchor: middle; }
      .title { font-family: Arial, sans-serif; font-size: 18px; fill: #1a202c; font-weight: bold; text-anchor: middle; }
      .wing-label { font-family: Arial, sans-serif; font-size: 14px; fill: #718096; text-anchor: middle; font-style: italic; }
      .amenity { font-family: Arial, sans-serif; font-size: 11px; fill: #3182ce; text-anchor: middle; font-weight: bold; }
      .landmark { fill: #ebf8ff; stroke: #3182ce; stroke-width: 2; }
    </style>
  </defs>
  <text class="title" x="800" y="30">Library of Congress - Jefferson Building - Ground Floor</text>
  <!-- Square building -->
  <rect class="wall" x="50" y="50" width="1500" height="1100" rx="5"/>
  <!-- Interior octagonal Reading Room -->
  <polygon class="landmark" points="800,350 920,400 950,520 920,640 800,690 680,640 650,520 680,400"/>
  <text class="label" x="800" y="525">Reading Room</text>
  <!-- Main corridors -->
  <rect class="hallway" x="60" y="200" width="1480" height="50"/>
  <rect class="hallway" x="60" y="790" width="1480" height="50"/>
  <rect class="hallway" x="200" y="200" width="50" height="640"/>
  <rect class="hallway" x="1350" y="200" width="50" height="640"/>
  <!-- Cross corridors -->
  <rect class="hallway" x="250" y="490" width="400" height="50"/>
  <rect class="hallway" x="950" y="490" width="400" height="50"/>
  <!-- North rooms -->
  <rect class="room" x="100" y="65" width="170" height="120"/>
  <text class="label" x="185" y="130">LJ-G01</text>
  <rect class="room" x="300" y="65" width="170" height="120"/>
  <text class="label" x="385" y="130">LJ-G02</text>
  <rect class="room" x="550" y="65" width="170" height="120"/>
  <text class="label" x="635" y="130">LJ-G03</text>
  <rect class="room" x="880" y="65" width="170" height="120"/>
  <text class="label" x="965" y="130">LJ-G04</text>
  <rect class="room" x="1100" y="65" width="170" height="120"/>
  <text class="label" x="1185" y="130">LJ-G05</text>
  <rect class="room" x="1330" y="65" width="170" height="120"/>
  <text class="label" x="1415" y="130">LJ-G06</text>
  <!-- South rooms -->
  <rect class="room" x="100" y="860" width="170" height="120"/>
  <text class="label" x="185" y="925">LJ-G10</text>
  <rect class="room" x="300" y="860" width="170" height="120"/>
  <text class="label" x="385" y="925">LJ-G11</text>
  <rect class="room" x="550" y="860" width="170" height="120"/>
  <text class="label" x="635" y="925">LJ-G12</text>
  <rect class="room" x="880" y="860" width="170" height="120"/>
  <text class="label" x="965" y="925">LJ-G13</text>
  <rect class="room" x="1100" y="860" width="170" height="120"/>
  <text class="label" x="1185" y="925">LJ-G14</text>
  <rect class="room" x="1330" y="860" width="170" height="120"/>
  <text class="label" x="1415" y="925">LJ-G15</text>
  <!-- West side rooms -->
  <rect class="room" x="60" y="280" width="130" height="100"/>
  <text class="label" x="125" y="335">LJ-G20</text>
  <rect class="room" x="60" y="400" width="130" height="100"/>
  <text class="label" x="125" y="455">LJ-G21</text>
  <text class="wing-label" x="800" y="190">North</text>
  <text class="wing-label" x="800" y="850">South</text>
  <text class="wing-label" x="120" y="600">West</text>
  <text class="wing-label" x="1480" y="600">East</text>
  <!-- Elevators -->
  <rect class="landmark" x="500" y="205" width="30" height="30"/>
  <text class="amenity" x="515" y="225">E</text>
  <rect class="landmark" x="1070" y="205" width="30" height="30"/>
  <text class="amenity" x="1085" y="225">E</text>
  <!-- Stairs -->
  <rect class="landmark" x="600" y="205" width="30" height="30"/>
  <text class="amenity" x="615" y="225">S</text>
  <rect class="landmark" x="970" y="205" width="30" height="30"/>
  <text class="amenity" x="985" y="225">S</text>
  <!-- Restrooms -->
  <rect class="landmark" x="750" y="795" width="30" height="30"/>
  <text class="amenity" x="765" y="815">R</text>
  <rect class="landmark" x="850" y="795" width="30" height="30"/>
  <text class="amenity" x="865" y="815">R</text>
  <!-- Entrance -->
  <rect class="landmark" x="700" y="1115" width="200" height="30"/>
  <text class="amenity" x="800" y="1135">ENTRANCE</text>
</svg>