<svg xmlns="http://www.w3.org/2000/svg" viewBox="0 0 1400 1000">
  <defs>
    <style>
      .wall { fill: none; stroke: #2d3748; stroke-width: 3; }
      .room { fill: #edf2f7; stroke: #a0aec0; stroke-width: 1; }
      .hallway { fill: #f7fafc; stroke: #cbd5e0; stroke-width: 1; }
      .label { font-family: Arial, sans-serif; font-size: 12px; fill: #4a5568; text-anchor: middle; }
      .title { font-family: Arial, sans-serif; font-size: 18px; fill: #1a202c; font-weight: bold; text-anchor: middle; }
      .amenity { font-family: Arial, sans-serif; font-size: 11px; fill: #3182ce; text-anchor: middle; font-weight: bold; }
      .landmark { fill: #ebf8ff; stroke: #3182ce; stroke-width: 2; }
    </style>
  </defs>
  <text class="title" x="700" y="30">Library of Congress - Adams Building - 2nd Floor</text>
  <rect class="wall" x="50" y="50" width="1300" height="900" rx="3"/>
  <rect class="hallway" x="60" y="460" width="1280" height="60"/>
  <rect class="hallway" x="350" y="60" width="50" height="880"/>
  <rect class="hallway" x="1000" y="60" width="50" height="880"/>
  <!-- Rooms -->
  <rect class="room" x="70" y="70" width="260" height="170"/>
  <text class="label" x="200" y="160">LA-200</text>
  <rect class="room" x="420" y="70" width="260" height="170"/>
  <text class="label" x="550" y="160">LA-201</text>
  <rect class="room" x="700" y="70" width="280" height="170"/>
  <text class="label" x="840" y="160">LA-202</text>
  <rect class="room" x="1070" y="70" width="260" height="170"/>
  <text class="label" x="1200" y="160">LA-203</text>
  <rect class="room" x="70" y="310" width="260" height="130"/>
  <text class="label" x="200" y="380">LA-210</text>
  <rect class="room" x="420" y="310" width="260" height="130"/>
  <text class="label" x="550" y="380">LA-211</text>
  <rect class="room" x="1070" y="310" width="260" height="130"/>
  <text class="label" x="1200" y="380">LA-212</text>
  <rect class="room" x="70" y="540" width="260" height="150"/>
  <text class="label" x="200" y="620">LA-220</text>
  <rect class="room" x="420" y="540" width="260" height="150"/>
  <text class="label" x="550" y="620">LA-221</text>
  <rect class="room" x="1070" y="540" width="260" height="150"/>
  <text class="label" x="1200" y="620">LA-222</text>
  <rect class="room" x="70" y="710" width="260" height="170"/>
  <text class="label" x="200" y="800">LA-230</text>
  <rect class="room" x="420" y="710" width="260" height="170"/>
  <text class="label" x="550" y="800">LA-231</text>
  <rect class="landmark" x="355" y="400" width="30" height="30"/>
  <text class="amenity" x="370" y="420">E</text>
  <rect class="landmark" x="1005" y="400" width="30" height="30"/>
  <text class="amenity" x="1020" y="420">E</text>
  <rect class="landmark" x="355" y="130" width="30" height="30"/>
  <text class="amenity" x="370" y="150">S</text>
  <rect class="landmark" x="1005" y="130" width="30" height="30"/>
  <text class="amenity" x="1020" y="150">S</text>
  <rect class="landmark" x="700" y="465" width="30" height="30"/>
  <text class="amenity" x="715" y="485">R</text>
</svg>